<svg width="1000" height="1000" viewBox="0 0 1000 1000" fill="none" xmlns="http://www.w3.org/2000/svg">
<rect width="1000" height="1000" rx="126" fill="white"/>
<path fillRule="evenodd" clipRule="evenodd" d="M174.373 52.601C152.337 57.9088 129.522 69.1656 110.929 83.9046C86.1336 103.562 77.7585 113.906 62.9459 143.164V143.164C54.4348 159.977 50 178.558 50 197.403V501.211V809.331C50 825.354 53.6717 841.163 60.7332 855.545V855.545C78.9611 892.672 116.997 928.115 153.524 942.012C171.999 949.039 189.767 949.448 494.694 949.901C775.683 950.318 818.883 949.602 836.203 944.251C882.901 929.822 924.725 888.029 942.906 837.619C949.524 819.264 950 796.605 950 499.244V207.231C950 189.616 946.48 172.179 939.648 155.943V155.943C920.882 111.364 886.544 76.059 845.852 59.4983V59.4983C831.575 53.6877 816.312 50.6847 800.898 50.6539L505.895 50.0632C330.808 49.713 181.624 50.854 174.373 52.601ZM534.817 220.262C562.929 221.718 586.023 220.919 597.192 218.102C606.947 215.643 615.852 214.557 616.98 215.686C620.777 219.487 580.745 253.706 561.165 263.401C540.763 273.501 509.059 276.259 491.263 269.484C486.174 267.548 468.767 264.723 452.583 263.204L445.806 262.568C432.35 261.305 419.647 268.98 414.508 281.48V281.48C405.166 304.195 358.515 444.459 358.515 449.826C358.515 453.654 404.985 460.76 453.821 464.399C472.737 465.808 488.155 468.027 488.088 469.333C488.017 470.636 483.969 474.602 479.084 478.147C463.811 489.239 423.04 497.277 382.045 497.277C339.639 497.277 342.598 495.487 336.695 524.689C335.178 532.192 332.514 541.045 330.772 544.362C329.035 547.679 325.907 557.476 323.828 566.132C321.745 574.788 315.586 596.92 310.135 615.315C292.91 673.468 280.703 736.622 280.2 770.208C279.932 788.091 279.327 789.196 271.07 786.981C266.208 785.679 258.898 784.585 254.831 784.557C250.763 784.526 241.48 778.179 234.197 770.452C221.833 757.326 220.961 754.627 220.961 729.567C220.961 696.151 233.459 647.087 262.07 568.178C274.045 535.155 283.843 506.425 283.843 504.336C283.843 500.68 237.153 502.903 211.583 507.778C200.779 509.84 200.375 509.407 203.008 498.689C204.529 492.504 210.377 483.435 216.001 478.54C227.893 468.185 270.795 453.996 290.202 453.996C302.621 453.996 304.272 452.458 312.961 432.789C318.114 421.123 323.533 406.093 325.003 399.388C326.477 392.684 329.31 386.188 331.307 384.952C333.304 383.721 334.934 380.061 334.934 376.823C334.934 373.585 338.263 363.509 342.331 354.432C362.787 308.798 374.236 281.102 374.236 277.262C374.236 274.921 376.004 273.005 378.166 273.005C380.328 273.005 382.096 269.196 382.096 264.538C382.096 256.24 381.263 256.122 340.048 258.648C282.687 262.161 262.738 272.69 249.753 306.307C243.272 323.089 243.512 354.896 250.291 377.445C253.455 387.97 255.341 397.279 254.485 398.137C251.089 401.536 226.184 390.496 216.064 381.1C202.678 368.671 199.718 357.217 202.359 328.046C206.8 279.045 248.586 243.181 325.915 221.993C353.508 214.435 412.79 213.943 534.817 220.262ZM728.077 478.588C763.885 502.813 745.735 564.661 690.611 606.257C666.406 624.522 618.639 644.431 587.96 649.034C565.727 652.371 561.338 658.174 564.592 679.913C568.255 704.354 581.424 722.489 598.308 726.337C618.124 730.854 652.23 726.254 674.891 716.013C710.136 700.082 760.465 651.466 782.918 611.667C785.63 606.863 787.473 606.529 791.152 610.176C797.707 616.672 790 634.874 768.978 662.569C751.906 685.059 710.431 725.483 704.43 725.483C702.543 725.483 698.574 727.911 695.614 730.874C692.651 733.84 676.168 741.123 658.986 747.061C585.111 772.588 522.362 746.931 513.469 687.566C508.407 653.775 521.576 607.784 547.299 569.39C561.44 548.285 609.698 497.277 615.522 497.277C617.574 497.277 622.042 494.759 625.454 491.682C648.818 470.604 705.577 463.365 728.077 478.588ZM668.996 504.21C651.114 512.992 619.728 544.638 601.433 572.341C585.41 596.61 572.377 626.135 576.068 629.825C579.962 633.725 622.207 616.011 645.108 600.879C687.129 573.104 716.605 531.016 710.655 507.283C708.607 499.118 705.809 497.293 695.449 497.367C688.466 497.415 676.561 500.495 668.996 504.21Z" fill="#3447F6"/>
</svg>
